<svg width="60" height="48" viewBox="0 0 60 48" fill="none" xmlns="http://www.w3.org/2000/svg">
<g clip-path="url(#clip0_445_3741)">
<path d="M58.5 33H57V22.8656C57 21.675 56.5219 20.5312 55.6781 19.6875L46.3125 10.3219C45.4688 9.47812 44.325 9 43.1344 9H39V4.5C39 2.01562 36.9844 0 34.5 0H10.5C8.01562 0 6 2.01562 6 4.5V9H0.75C0.3375 9 0 9.3375 0 9.75V11.25C0 11.6625 0.3375 12 0.75 12H26.25C26.6625 12 27 12.3375 27 12.75V14.25C27 14.6625 26.6625 15 26.25 15H3.75C3.3375 15 3 15.3375 3 15.75V17.25C3 17.6625 3.3375 18 3.75 18H23.25C23.6625 18 24 18.3375 24 18.75V20.25C24 20.6625 23.6625 21 23.25 21H0.75C0.3375 21 0 21.3375 0 21.75V23.25C0 23.6625 0.3375 24 0.75 24H20.25C20.6625 24 21 24.3375 21 24.75V26.25C21 26.6625 20.6625 27 20.25 27H6V39C6 43.9688 10.0312 48 15 48C19.9688 48 24 43.9688 24 39H36C36 43.9688 40.0312 48 45 48C49.9688 48 54 43.9688 54 39H58.5C59.325 39 60 38.325 60 37.5V34.5C60 33.675 59.325 33 58.5 33ZM15 43.5C12.5156 43.5 10.5 41.4844 10.5 39C10.5 36.5156 12.5156 34.5 15 34.5C17.4844 34.5 19.5 36.5156 19.5 39C19.5 41.4844 17.4844 43.5 15 43.5ZM45 43.5C42.5156 43.5 40.5 41.4844 40.5 39C40.5 36.5156 42.5156 34.5 45 34.5C47.4844 34.5 49.5 36.5156 49.5 39C49.5 41.4844 47.4844 43.5 45 43.5ZM52.5 24H39V13.5H43.1344L52.5 22.8656V24Z" fill="white"/>
</g>
<defs>
<clipPath id="clip0_445_3741">
<rect width="60" height="48" fill="white"/>
</clipPath>
</defs>
</svg>
