<svg width="32" height="32" viewBox="0 0 32 32" fill="none" xmlns="http://www.w3.org/2000/svg">
<g clip-path="url(#clip0_1_176)">
<path d="M16 31.625C7.384 31.625 0.375 24.615 0.375 16C0.375 7.384 7.384 0.375 16 0.375C24.615 0.375 31.625 7.384 31.625 16C31.625 24.615 24.615 31.625 16 31.625Z" fill="white"/>
<path d="M16 0.75C24.409 0.75 31.25 7.591 31.25 16C31.25 24.409 24.409 31.25 16 31.25C7.591 31.25 0.75 24.409 0.75 16C0.75 7.591 7.591 0.75 16 0.75ZM16 0C7.163 0 0 7.163 0 16C0 24.836 7.163 32 16 32C24.837 32 32 24.836 32 16C32 7.163 24.837 0 16 0Z" fill="#E5E5E5"/>
<path d="M16 5.53418C12.27 5.53418 9.24597 8.55818 9.24597 12.2882C9.24597 12.9132 9.33097 13.5192 9.48997 14.0942C9.55397 14.3242 9.62897 14.5502 9.71597 14.7692L9.92097 15.2342L16 26.4662L22.087 15.2172L22.272 14.7982C22.364 14.5692 22.443 14.3342 22.51 14.0932C22.669 13.5182 22.754 12.9132 22.754 12.2872C22.754 8.55818 19.73 5.53418 16 5.53418ZM16 15.2142C14.35 15.2142 13.012 13.8762 13.012 12.2262C13.012 10.5762 14.35 9.23818 16 9.23818C17.65 9.23818 18.988 10.5762 18.988 12.2262C18.988 13.8772 17.65 15.2142 16 15.2142Z" fill="#32C6EA"/>
</g>
<defs>
<clipPath id="clip0_1_176">
<rect width="32" height="32" fill="white"/>
</clipPath>
</defs>
</svg>
