<svg width="32" height="32" viewBox="0 0 32 32" fill="none" xmlns="http://www.w3.org/2000/svg">
<g clip-path="url(#clip0_72_256)">
<path d="M16 31.625C7.385 31.625 0.375 24.615 0.375 16C0.375 7.384 7.385 0.375 16 0.375C24.615 0.375 31.625 7.384 31.625 16C31.625 24.615 24.615 31.625 16 31.625Z" fill="white"/>
<path d="M16 0.75C24.409 0.75 31.25 7.591 31.25 16C31.25 24.409 24.409 31.25 16 31.25C7.591 31.25 0.75 24.409 0.75 16C0.75 7.591 7.591 0.75 16 0.75ZM16 0C7.163 0 0 7.163 0 16C0 24.836 7.163 32 16 32C24.837 32 32 24.836 32 16C32 7.163 24.837 0 16 0Z" fill="#E5E5E5"/>
<path d="M21.7601 17.4088L19.8691 18.8867L23.49 23.5196L25.381 22.0416L21.7601 17.4088Z" fill="#385F59"/>
<path d="M22.5136 24.2843L18.8926 19.6513C18.8926 19.6513 16.5316 19.0983 14.8496 16.9473C13.1686 14.7963 13.2026 12.3713 13.2026 12.3713L9.58155 7.73828C9.58155 7.73828 6.15055 12.6533 11.5326 19.5393C16.9146 26.4253 22.5136 24.2843 22.5136 24.2843Z" fill="#385F59"/>
<path d="M12.4496 5.49669L10.5586 6.97461L14.1795 11.6075L16.0705 10.1295L12.4496 5.49669Z" fill="#385F59"/>
</g>
<defs>
<clipPath id="clip0_72_256">
<rect width="32" height="32" fill="white"/>
</clipPath>
</defs>
</svg>
