<svg width="32" height="32" viewBox="0 0 32 32" fill="none" xmlns="http://www.w3.org/2000/svg">
<g clip-path="url(#clip0_72_245)">
<path d="M16 31.625C7.384 31.625 0.375 24.615 0.375 16C0.375 7.384 7.384 0.375 16 0.375C24.615 0.375 31.625 7.384 31.625 16C31.625 24.615 24.615 31.625 16 31.625Z" fill="white"/>
<path d="M16 0.75C24.409 0.75 31.25 7.591 31.25 16C31.25 24.409 24.409 31.25 16 31.25C7.591 31.25 0.75 24.409 0.75 16C0.75 7.591 7.591 0.75 16 0.75ZM16 0C7.163 0 0 7.163 0 16C0 24.836 7.163 32 16 32C24.837 32 32 24.836 32 16C32 7.163 24.837 0 16 0Z" fill="#E5E5E5"/>
<path d="M6.51758 21.8151L11.7066 15.2911L6.51758 12.1191V21.8151Z" fill="#385F59"/>
<path d="M19.4994 15.7461L15.9884 17.9081L12.4714 15.7581L7.10938 22.5001H24.8664L19.4994 15.7461Z" fill="#385F59"/>
<path d="M15.9876 16.864L25.4816 11.017V9.5H6.51758V11.076L15.9876 16.864Z" fill="#385F59"/>
<path d="M20.2617 15.2755L25.4807 21.8425V12.0615L20.2617 15.2755Z" fill="#385F59"/>
</g>
<defs>
<clipPath id="clip0_72_245">
<rect width="32" height="32" fill="white"/>
</clipPath>
</defs>
</svg>
