<svg width="81" height="81" viewBox="0 0 81 81" fill="none" xmlns="http://www.w3.org/2000/svg">
<path d="M55.4987 48.25H26.4987L16.832 57.9167V19.25C16.832 18.6091 17.0866 17.9944 17.5399 17.5412C17.9931 17.088 18.6078 16.8334 19.2487 16.8334H55.4987C56.1396 16.8334 56.7543 17.088 57.2075 17.5412C57.6608 17.9944 57.9154 18.6091 57.9154 19.25V45.8334C57.9154 46.4743 57.6608 47.089 57.2075 47.5422C56.7543 47.9954 56.1396 48.25 55.4987 48.25ZM67.582 33.75V67.5834L57.9154 57.9167H31.332C30.6911 57.9167 30.0764 57.6621 29.6232 57.2089C29.17 56.7557 28.9154 56.141 28.9154 55.5V53.0834H62.7487V31.3334H65.1654C65.8063 31.3334 66.421 31.588 66.8742 32.0412C67.3274 32.4944 67.582 33.1091 67.582 33.75ZM31.7912 21.6667C29.6887 21.6667 27.997 22.15 26.692 23.0925C25.4354 24.0834 24.807 25.4609 24.8312 27.37L24.8554 27.4425H29.5195C29.5437 26.7175 29.7612 26.1617 30.1962 25.775C30.6437 25.4039 31.21 25.2066 31.7912 25.2192C32.5404 25.2192 33.1687 25.4609 33.6037 25.8959C34.0387 26.355 34.232 26.9834 34.232 27.7084C34.232 28.4817 34.0629 29.1342 33.6762 29.69C33.3379 30.2459 32.8304 30.7292 32.202 31.1159C30.9695 31.9375 30.1237 32.6625 29.6645 33.315C29.1812 33.9434 28.9154 34.9584 28.9154 36.1667H33.7487C33.7487 35.4175 33.8454 34.8134 34.0629 34.3784C34.2804 33.9434 34.6912 33.5084 35.2954 33.1217C36.3829 32.5417 37.277 31.8409 37.9779 30.8742C38.6787 29.9075 39.0412 28.9167 39.0412 27.7084C39.0412 25.8717 38.3887 24.3975 37.0837 23.31C35.8029 22.2225 34.0387 21.6667 31.7912 21.6667ZM28.9154 38.5834V43.4167H33.7487V38.5834H28.9154ZM43.4154 43.4167H48.2487V38.5834H43.4154V43.4167ZM43.4154 21.6667V36.1667H48.2487V21.6667H43.4154Z" fill="white"/>
</svg>
