<svg width="81" height="81" viewBox="0 0 81 81" fill="none" xmlns="http://www.w3.org/2000/svg">
<path d="M63.18 49.815C64.3612 46.9462 65.0025 43.875 65.0025 40.5C65.0025 38.07 64.6312 35.7412 63.99 33.5812C61.7962 34.0875 59.5013 34.3575 57.105 34.3575C52.1977 34.3627 47.361 33.1881 43.0027 30.9326C38.6444 28.6771 34.8922 25.4068 32.0625 21.3975C29.0354 28.7218 23.325 34.6133 16.0988 37.8675C15.9637 38.7112 15.9637 39.6225 15.9637 40.5C15.9637 43.7221 16.5984 46.9127 17.8315 49.8896C19.0645 52.8665 20.8718 55.5713 23.1503 57.8497C27.7517 62.4512 33.9926 65.0362 40.5 65.0362C44.0438 65.0362 47.4525 64.26 50.5238 62.8762C52.4475 66.555 53.325 68.3775 53.2575 68.3775C47.7225 70.2337 43.4362 71.145 40.5 71.145C32.3325 71.145 24.5363 67.9387 18.7988 62.1675C15.309 58.6885 12.7149 54.4151 11.2387 49.7137H6.75V34.3575H10.4287C11.5433 28.9322 14.1058 23.9099 17.8443 19.8233C21.5827 15.7368 26.3578 12.7386 31.6627 11.1468C36.9676 9.55497 42.6044 9.42895 47.9752 10.7821C53.3459 12.1353 58.2501 14.9171 62.1675 18.8325C66.4208 23.069 69.3218 28.4718 70.5037 34.3575H74.25V49.7137H74.0475L62.0325 60.75L44.145 58.725V53.0887H60.4463L63.18 49.815ZM31.2863 39.7237C32.2988 39.7237 33.2775 40.1287 33.9862 40.8712C34.6985 41.5893 35.0982 42.5598 35.0982 43.5712C35.0982 44.5827 34.6985 45.5531 33.9862 46.2712C33.2775 46.98 32.2988 47.385 31.2863 47.385C29.16 47.385 27.4388 45.6975 27.4388 43.5712C27.4388 41.445 29.16 39.7237 31.2863 39.7237ZM49.68 39.7237C51.8063 39.7237 53.4938 41.445 53.4938 43.5712C53.4938 45.6975 51.8063 47.385 49.68 47.385C47.5537 47.385 45.8325 45.6975 45.8325 43.5712C45.8325 42.5508 46.2379 41.5722 46.9594 40.8506C47.681 40.1291 48.6596 39.7237 49.68 39.7237Z" fill="white"/>
</svg>
